0
SECTION
2
HEADER
9
$INSUNITS
70
4
9
$ACADVER
1
AC1014
9
$HANDSEED
5
FFFF
0
ENDSEC
0
SECTION
2
TABLES
0
TABLE
2
VPORT
5
8
100
AcDbSymbolTable
0
ENDTAB
0
TABLE
2
LTYPE
5
5
100
AcDbSymbolTable
0
LTYPE
5
14
100
AcDbSymbolTableRecord
100
AcDbLinetypeTableRecord
2
BYBLOCK
70
0
0
LTYPE
5
15
100
AcDbSymbolTableRecord
100
AcDbLinetypeTableRecord
2
BYLAYER
70
0
0
LTYPE
5
16
100
AcDbSymbolTableRecord
100
AcDbLinetypeTableRecord
2
DASHED
70
0
3
Dashed __ __ __ __ __ __ __ __ __ __ __ __ __ _
72
65
73
2
40
0.75
49
0.5
74
0
49
-0.25
74
0
0
ENDTAB
0
TABLE
2
LAYER
5
2
100
AcDbSymbolTable
70
3
0
LAYER
5
50
100
AcDbSymbolTableRecord
100
AcDbLayerTableRecord
2
1
70
0
62
7
6
DASHED
0
LAYER
5
51
100
AcDbSymbolTableRecord
100
AcDbLayerTableRecord
2
0
70
0
62
7
6
CONTINUOUS
0
ENDTAB
0
TABLE
2
STYLE
5
3
100
AcDbSymbolTable
70
1
0
STYLE
5
11
100
AcDbSymbolTableRecord
100
AcDbTextStyleTableRecord
2
STANDARD
70
0
0
ENDTAB
0
TABLE
2
VIEW
5
6
100
AcDbSymbolTable
70
0
0
ENDTAB
0
TABLE
2
UCS
5
7
100
AcDbSymbolTable
70
0
0
ENDTAB
0
TABLE
2
APPID
5
9
100
AcDbSymbolTable
70
2
0
APPID
5
12
100
AcDbSymbolTableRecord
100
AcDbRegAppTableRecord
2
ACAD
70
0
0
ENDTAB
0
TABLE
2
DIMSTYLE
5
A
100
AcDbSymbolTable
70
1
0
ENDTAB
0
TABLE
2
BLOCK_RECORD
5
1
100
AcDbSymbolTable
70
1
0
BLOCK_RECORD
5
1F
100
AcDbSymbolTableRecord
100
AcDbBlockTableRecord
2
*MODEL_SPACE
0
BLOCK_RECORD
5
1B
100
AcDbSymbolTableRecord
100
AcDbBlockTableRecord
2
*PAPER_SPACE
0
ENDTAB
0
ENDSEC
0
SECTION
2
BLOCKS
0
BLOCK
5
20
100
AcDbEntity
100
AcDbBlockBegin
2
*MODEL_SPACE
0
ENDBLK
5
21
100
AcDbEntity
100
AcDbBlockEnd
0
BLOCK
5
1C
100
AcDbEntity
100
AcDbBlockBegin
2
*PAPER_SPACE
0
ENDBLK
5
1D
100
AcDbEntity
100
AcDbBlockEnd
0
ENDSEC
0
SECTION
2
ENTITIES
0
LWPOLYLINE
5
100
100
AcDbEntity
8
0
100
AcDbPolyline
90
36
70
1
43
0.0
10
-133.68301270189224
20
60.510263290249533
42
0.1316524975873242
10
-133.75000000000006
20
60.260263290249526
10
-133.75
20
0.50000000000000711
42
0.41421356237310436
10
-133.25
20
1.9706458687096529e-14
10
-113.50000000000001
20
7.4246164771807344e-15
42
-0.41421356237309503
10
-113
20
-0.49999999999999967
10
-113
20
-1.8749999999999951
42
0.41421356237310542
10
-112.5
20
-2.3749999999999845
10
-94.500000000000014
20
-2.3749999999999885
42
-0.41421356237309503
10
-94
20
-2.8749999999999956
10
-94
20
-4.2499999999999956
42
0.41421356237307422
10
-93.5
20
-4.7500000000000027
10
-75.5
20
-4.75
42
-0.41421356237309503
10
-75
20
-5.2499999999999982
10
-75
20
-6.6249999999999982
42
0.41421356237309631
10
-74.5
20
-7.1249999999999991
10
-57.5
20
-7.125
42
0.41421356237309698
10
-57
20
-6.625
10
-57
20
-5.25
42
-0.41421356237309503
10
-56.5
20
-4.75
10
-38.5
20
-4.75
42
0.41421356237309537
10
-38
20
-4.25
10
-38
20
-0.49999999999999989
42
-0.41421356237309503
10
-37.500000000000007
20
2.0816681711721685e-16
10
-0.50000000000000266
20
0
42
0.41421356237309648
10
-4.163336342344337e-16
20
0.50000000000000022
10
0
20
55.500000000000007
42
0.41421356237309681
10
-0.50000000000000022
20
56.000000000000007
10
-55.740921998626916
20
56
42
-0.24369239898589809
10
-56.149405930259306
20
56.211658401200673
10
-66.373600942863064
20
70.695934669056015
42
0.20955755725555195
10
-66.717337327525186
20
70.903383101581767
10
-103.98188457738252
20
75.769935212234941
42
-0.098753913193195014
10
-104.16713703041225
20
75.832712541667803
10
-119.23621593216703
20
84.532849302035629
42
0.41421356237309503
10
-119.91922863405925
20
84.349836600143405
0
ENDSEC
0
SECTION
2
OBJECTS
0
DICTIONARY
5
C
100
AcDbDictionary
3
ACAD_GROUP
350
D
3
ACAD_MLINESTYLE
350
17
0
DICTIONARY
5
D
100
AcDbDictionary
0
DICTIONARY
5
1A
330
C
100
AcDbDictionary
0
DICTIONARY
5
17
100
AcDbDictionary
0
ENDSEC
0
EOF
